# xmcd
#
# Track frame offsets: 
#        300
#        17581
#        36929
#        50719
#        67057
#        82717
#        97220
#        119754
#        133800
#        153819
#
# Disc length: 2285 seconds
#
# Revision: 0
# Processed by: cddbd v1.5.2PL0 Copyright (c) Steve Scherf et al.
# Submitted via: ExactAudioCopy v1.0b1
#
DISCID=8a08e90a
DTITLE=Chris Thomas King - Antebellum Postcards
DYEAR=2011
DGENRE=Acoustic Blues
TTITLE0=I Wanna Be Your Drug Tonight
TTITLE1=Wayfaring Stranger
TTITLE2=Rehab (Winehouse Blues)
TTITLE3=California Letter
TTITLE4=How Does It Feel
TTITLE5=Sketches Of Treme
TTITLE6=Caught In Between
TTITLE7=I Am A Man Of Constant Sorrow
TTITLE8=Louis Collins
TTITLE9=Michael Row The Boat Ashore
EXTD=
EXTT0=
EXTT1=
EXTT2=
EXTT3=
EXTT4=
EXTT5=
EXTT6=
EXTT7=
EXTT8=
EXTT9=
PLAYORDER=
